<?xml version="1.0" standalone="no"?>
<!DOCTYPE svg PUBLIC "-//W3C//DTD SVG 20010904//EN"
 "http://www.w3.org/TR/2001/REC-SVG-20010904/DTD/svg10.dtd">
<svg version="1.0" xmlns="http://www.w3.org/2000/svg"
 width="969.000000pt" height="955.000000pt" viewBox="0 0 969.000000 955.000000"
 preserveAspectRatio="xMidYMid meet">

<g transform="translate(0.000000,955.000000) scale(0.100000,-0.100000)"
fill="#fff" stroke="none">
<path d="M3556 9454 c-9 -8 -16 -27 -16 -40 0 -61 -37 -194 -107 -384 -100
-272 -143 -399 -143 -426 0 -13 10 -40 23 -61 22 -37 22 -44 25 -445 l3 -408
-318 0 c-941 0 -1600 -93 -2636 -372 -125 -33 -226 -63 -223 -65 7 -8 317 29
831 98 286 39 601 79 700 90 249 27 575 34 935 20 352 -13 474 -22 770 -56
289 -33 660 -49 965 -42 455 11 559 28 1003 169 l192 62 0 408 0 408 400 0
400 0 0 -310 0 -310 81 0 80 0 -3 370 c-3 339 -4 371 -21 387 -16 17 -55 18
-557 21 l-540 4 0 -431 0 -431 -60 0 -60 0 0 164 0 164 -132 70 c-73 38 -247
127 -386 197 l-253 129 -326 -162 c-283 -140 -328 -160 -336 -146 -5 9 -8 98
-5 199 4 181 4 183 32 223 33 49 34 46 -60 294 -121 318 -184 507 -184 552 0
63 -40 95 -74 60z m1084 -1695 l0 -152 -112 7 c-144 9 -158 17 -158 90 0 29 3
87 6 129 l7 77 128 0 129 0 0 -151z"/>
<path d="M2099 8157 l-327 -81 -7 -103 -7 -103 -98 0 c-110 0 -184 -12 -238
-37 -60 -29 -195 -173 -178 -190 4 -4 41 4 84 17 135 41 193 50 368 59 94 5
180 14 191 20 22 11 33 55 33 139 0 94 0 94 282 162 219 52 284 53 407 6 109
-42 186 -81 211 -106 15 -15 20 -34 20 -73 0 -29 5 -58 12 -65 7 -7 40 -12 80
-12 l68 0 0 128 0 128 -187 78 c-241 101 -286 116 -342 115 -25 -1 -193 -38
-372 -82z"/>
<path d="M6958 8153 l-78 -4 1 -202 c2 -261 1 -258 64 -279 32 -11 54 -13 60
-7 6 6 12 75 15 154 7 199 -3 191 218 187 91 -2 168 -4 169 -6 1 -1 7 -112 13
-246 6 -135 13 -246 14 -248 6 -6 116 -26 120 -21 2 2 7 156 11 342 l7 337
-268 -2 c-148 -1 -304 -4 -346 -5z"/>
<path d="M6275 7643 c-160 -12 -268 -41 -655 -175 -556 -193 -703 -220 -1255
-234 -309 -8 -374 -2 -945 86 -555 85 -890 120 -970 102 -32 -7 -28 -9 50 -21
159 -24 344 -62 807 -167 707 -160 961 -197 1338 -197 377 0 702 51 1158 182
430 124 563 141 795 106 99 -15 148 -26 517 -114 295 -70 369 -82 546 -88 189
-7 269 5 575 82 293 75 372 81 813 66 190 -7 360 -14 376 -16 76 -12 -62 28
-327 94 -321 80 -448 101 -605 101 -126 0 -169 -7 -388 -60 -259 -63 -438 -73
-635 -34 -41 9 -217 63 -390 120 -347 116 -468 149 -610 164 -93 9 -115 10
-195 3z"/>
<path d="M4480 6469 c-452 -58 -879 -267 -1166 -572 -327 -346 -486 -702 -525
-1175 -28 -329 47 -718 192 -1002 234 -457 621 -786 1119 -951 416 -137 884
-127 1297 27 526 197 916 578 1123 1099 38 96 86 277 100 380 32 228 21 566
-24 750 -93 380 -333 760 -646 1019 -334 278 -795 438 -1247 435 -87 -1 -187
-5 -223 -10z m391 -515 c351 -48 589 -166 826 -406 282 -285 398 -572 397
-983 -1 -308 -66 -522 -232 -771 -72 -107 -165 -210 -259 -286 -83 -68 -131
-94 -146 -79 -14 14 -21 402 -9 519 l10 94 104 101 c92 90 110 113 154 201
l49 98 -1 237 c-1 276 -13 353 -73 477 -52 104 -142 203 -219 241 -49 24 -69
28 -142 28 -73 0 -93 -4 -142 -28 -33 -16 -75 -49 -100 -76 -66 -74 -138 -203
-166 -294 -23 -76 -25 -99 -26 -307 -2 -334 16 -384 192 -558 l114 -114 -7
-394 -7 -393 -56 -16 c-129 -38 -224 -49 -432 -49 -175 1 -219 4 -300 22 -254
59 -469 180 -660 372 -124 125 -202 231 -276 376 -102 202 -134 350 -134 628
0 72 5 169 10 214 20 158 109 378 222 547 68 103 235 275 336 348 288 207 639
298 973 251z"/>
<path d="M3843 5398 c-12 -6 -25 -18 -28 -27 -17 -43 -27 -297 -28 -706 -2
-359 1 -458 12 -489 18 -52 68 -105 145 -155 l64 -42 6 -114 c3 -63 9 -167 12
-230 l6 -115 82 -49 c104 -62 147 -84 153 -77 3 3 9 127 14 276 6 214 11 276
23 294 8 13 50 49 93 81 43 32 89 72 103 89 l25 30 3 341 c3 335 -11 792 -26
850 -11 41 -51 63 -86 47 -15 -6 -31 -24 -38 -39 -6 -18 -13 -161 -17 -378 -6
-275 -10 -356 -22 -380 -16 -34 -37 -41 -63 -22 -21 15 -24 54 -45 552 -6 127
-13 239 -17 248 -16 43 -107 27 -118 -21 -3 -15 -10 -160 -16 -322 -12 -365
-17 -428 -36 -457 -20 -32 -52 -30 -65 5 -6 15 -15 140 -20 277 -14 426 -22
508 -55 532 -21 15 -31 15 -61 1z"/>
<path d="M80 4669 l0 -1682 823 7 c928 8 835 0 1060 94 403 167 618 495 594
906 -16 272 -120 474 -321 623 -77 57 -209 128 -266 143 -77 21 -73 19 -61 34
6 7 42 31 78 52 37 22 111 81 164 132 141 134 194 245 219 450 31 251 -55 484
-242 657 -113 105 -251 177 -423 220 -142 36 -342 45 -1017 45 l-608 0 0
-1681z m1307 1152 c135 -10 193 -34 283 -117 88 -82 105 -124 105 -264 0 -142
-18 -206 -76 -273 -124 -144 -261 -176 -756 -177 l-283 0 0 420 0 420 308 -1
c169 0 357 -4 419 -8z m108 -1338 c325 -62 492 -265 455 -554 -14 -118 -48
-185 -135 -268 -155 -147 -273 -171 -831 -171 l-324 0 0 500 0 500 178 1 c97
1 247 5 332 9 172 7 209 6 325 -17z"/>
<path d="M6980 4672 l0 -1682 290 0 290 0 0 560 0 560 238 0 237 0 26 -33 c59
-74 439 -580 618 -824 l193 -263 368 0 c203 0 371 4 374 8 5 8 -30 54 -259
343 -161 203 -535 700 -598 793 -52 78 -51 86 15 106 155 46 364 212 476 377
124 183 182 377 182 608 0 185 -34 334 -113 490 -166 331 -534 580 -908 614
-63 6 -410 14 -771 17 l-658 7 0 -1681z m1373 1132 c77 -11 114 -22 170 -51
89 -47 201 -156 239 -233 80 -162 88 -413 18 -555 -53 -109 -177 -227 -294
-281 -77 -35 -155 -42 -558 -50 l-368 -7 1 519 c1 285 4 553 8 594 l6 75 45 6
c76 11 627 -1 733 -17z"/>
<path d="M2950 2429 c-126 -25 -264 -66 -343 -100 -316 -136 -589 -455 -672
-783 -81 -318 -48 -627 97 -906 147 -285 400 -497 721 -604 l108 -36 278 0
279 0 94 30 c109 36 246 101 338 161 88 58 244 216 310 313 70 105 155 283
181 381 30 115 38 396 15 554 -34 230 -150 448 -340 637 -209 208 -413 308
-716 349 -116 16 -281 18 -350 4z m374 -458 c163 -43 306 -141 407 -278 241
-325 199 -794 -93 -1070 -182 -171 -430 -239 -664 -183 -291 69 -486 269 -572
585 -23 85 -22 307 2 395 42 157 154 329 270 417 79 60 222 127 311 147 91 20
235 15 339 -13z"/>
<path d="M5629 2424 c-455 -82 -819 -399 -973 -846 -37 -108 -54 -336 -39
-515 13 -144 32 -207 118 -389 69 -146 120 -220 229 -330 132 -133 288 -229
498 -308 l97 -36 274 0 c257 0 280 2 369 24 180 46 344 140 500 285 193 181
306 375 368 631 31 126 34 380 7 508 -58 264 -165 460 -349 637 -181 176 -384
277 -667 335 -117 24 -314 26 -432 4z m436 -458 c99 -27 194 -80 273 -152 123
-112 200 -236 244 -391 30 -103 31 -303 4 -408 -71 -271 -261 -477 -516 -561
-75 -25 -99 -28 -210 -28 -107 1 -138 5 -215 28 -49 15 -114 40 -145 57 -121
65 -267 225 -342 376 l-43 86 0 237 0 237 57 114 c118 238 294 377 526 419 72
13 298 4 367 -14z"/>
<path d="M225 2400 c-72 -4 -133 -8 -137 -9 -5 0 -8 -532 -8 -1181 l0 -1180
250 0 250 0 0 479 0 479 28 7 c15 4 240 9 500 12 l472 5 0 199 0 199 -500 0
-500 0 0 280 0 280 564 0 c508 0 564 2 570 16 3 9 9 103 13 208 l6 193 -39 7
c-59 10 -1320 15 -1469 6z"/>
<path d="M7482 2401 c-45 -5 -84 -10 -86 -12 -13 -13 -15 -416 -9 -1328 l6
-1034 501 6 c605 7 706 17 881 87 185 74 326 163 436 277 124 128 193 245 254
426 48 145 59 225 51 397 -13 271 -47 418 -131 562 -201 344 -519 539 -985
604 -121 17 -784 27 -918 15z m798 -446 c69 -8 151 -21 184 -30 352 -92 549
-353 548 -724 -1 -302 -132 -515 -399 -650 -147 -74 -478 -120 -650 -90 l-63
11 0 749 0 749 128 0 c70 0 183 -7 252 -15z"/>
</g>
</svg>
