<svg xmlns="http://www.w3.org/2000/svg" width="1365.333" height="1365.333" version="1.0" viewBox="0 0 1024 1024"><path d="M444.3 212.2c-.4.7-.6 2.4-.5 3.8.2 1.4-1.9 8.4-4.6 15.5-8.3 22.1-8.7 23.3-6.8 25.4 1.4 1.5 1.6 4.9 1.6 22.4V300h-21.3c-29.7 0-59.7 3.1-87 9-17 3.7-51.8 12.5-50.8 12.8 1.4.5 22.8-2.1 49.1-5.8 33.6-4.8 41.1-5.3 68.3-4.7 17.3.4 31 1.2 43.7 2.8 14.4 1.8 23.6 2.3 41.5 2.3 26.9 0 36.3-1.3 55.2-7.6l12.3-4V264h40v31h8v-18.9c0-16.3-.2-19-1.6-19.5-.9-.3-13.5-.6-28-.6H537v43h-6v-16.5l-19.3-9.9-19.3-9.8-16.2 8.1c-8.9 4.4-16.4 8.1-16.7 8.1s-.5-4.6-.5-10.2c0-8.1.3-10.5 1.7-12 1.9-2.2 2.1-1.4-6.7-24.2-3.3-8.7-5.9-16.5-5.6-17.2 1.3-3.3-2.3-6-4.1-3.2m54.7 84.3v7.6l-6.7-.3c-7.5-.3-7.7-.5-6.6-9.6l.6-5.2H499z"/><path d="M386.5 273.1c-1.6.6-9.3 2.5-17 4.3l-14 3.3-.3 5.2-.3 5.1h-6.7c-4.4 0-7.9.6-10.1 1.8-3.5 1.7-9.9 8.8-8.9 9.7.3.4 3.2-.4 6.4-1.6 4.3-1.5 8.6-2.2 15.4-2.3 5.3-.1 10.1-.6 10.8-1s1.2-3 1.2-6.1c0-6.2-1.9-5 15.7-9.4 11-2.8 13.1-2.7 22.3 1.5 8 3.7 8 3.7 8 7.5 0 3.9 0 3.9 4 3.9h4v-12.8l-12.1-5.1c-12.6-5.3-13.5-5.5-18.4-4M618.8 276.7l-7.8.4v11.5c0 11.4 0 11.5 2.6 12.4 4.2 1.6 4.4 1.3 4.4-5.8 0-11.6-.2-11.3 10.4-11l9.1.3.5 12.4.5 12.5 2.9.7c1.7.5 3.1.7 3.3.6.1-.2.3-7.9.5-17.2l.3-17-9.5-.1c-5.2 0-13 .1-17.2.3"/><path d="M572 303.5c-3.6.7-13.9 4-23 7.3-25.6 9.3-36.4 11.4-60.5 12-20.3.4-21.8.3-50.5-4.3-21.5-3.5-38.6-5.5-45.4-5.4-3.9.1-6 .4-4.6.6s6.6 1.1 11.5 1.9c5 .8 18.2 3.7 29.5 6.4 40 9.7 59.8 12.1 83.2 10.2 16.5-1.3 29-3.8 47.3-9.3 24.6-7.4 29.5-7.4 59 .1 29.2 7.4 38.4 7.5 62 .8 12.2-3.5 19-3.9 46-2.6l14 .7-15-4c-28-7.3-36.4-7.8-53-2.9-3.8 1.2-11.3 2.4-16.5 2.7-11.3.6-17.6-.7-36-7.3-22.7-8.3-33.6-9.8-48-6.9M494 360.7c-30.3 3-55.2 17.6-72.1 42-17.6 25.6-20.8 61-8.1 91.2 7.9 18.7 23 35.1 41.5 45.1 16.6 9 33.3 12.7 52.1 11.7 14.9-.8 25.9-3.7 39.1-10.1 26.3-12.9 45-37 50.9-65.8 2-9.6 2.1-28.1.2-38-4.2-21.9-18.4-44.2-36.7-57.5-18.7-13.7-44.4-20.9-66.9-18.6m18.7 26.3c16.4 2.7 28 8.6 39.5 20.2 14.1 14.2 20.5 31.2 19.6 52.1-.7 15.9-5.1 27.5-15.4 40.7-4.9 6.2-14.9 14.4-16.4 13.5-1.3-.8-1.3-27.5-.1-30.7.5-1.3 2.7-3.6 4.8-5 2.5-1.7 5.1-4.8 7.3-8.9 3.5-6.3 3.5-6.5 3.5-18.9 0-14.3-1.8-21.6-7-28.4-4.7-6.2-8.9-8.6-14.9-8.6-6.4 0-10.3 2.3-14.7 8.6-6.1 8.8-7.3 13.5-7.4 27.4 0 15.4 1.8 20.4 10.2 27.9l5.3 4.8-.2 19.9-.3 19.9-6.5 1.7c-8.4 2.2-25.3 2.3-34 .2-23.3-5.4-43.2-24.6-50.6-48.9-1.4-4.5-1.8-9.2-1.8-19 0-11.4.3-14 2.7-21 10.9-32.8 43.2-52.9 76.4-47.5"/><path d="M458 415.4c-.9 1.2-1.4 9-1.8 29.9-.6 32.1-.5 32.4 7 37.4l4.3 2.9.5 11.4.5 11.5 5.5 3.2c3 1.8 5.8 3.3 6.2 3.3s.8-6 .9-13.3c0-7.2.3-14 .7-14.9.4-1 2.8-3.1 5.5-4.8 2.6-1.6 5.2-4.2 5.8-5.7 1.4-3.5.3-57.6-1.2-60.4-1.3-2.5-4.5-2.4-5.9 0-.6 1.1-1 9.1-1 18.8 0 19.4-.4 21.5-3.4 21.1-2-.3-2.1-.9-2.6-19.8-.3-10.7-.9-20.1-1.3-20.8-1.1-1.6-4.2-1.6-5.5.1-.7.7-1.2 8.9-1.4 20.5-.2 15.6-.6 19.4-1.8 20.2-3.2 2-4-.8-4.1-14.4-.1-7.2-.4-16.3-.8-20.1-.5-6.1-.9-7-2.7-7.3-1.1-.2-2.7.4-3.4 1.2M271 451.1v84l41.3-.3 41.2-.3 7.8-2.8c22-7.7 33.7-23.1 33.7-44.2 0-12.7-4-22.7-12.1-30.6-4.7-4.6-15.9-10.9-19.3-10.9-2.7 0-1.8-1.5 1.9-3.3 4.5-2.1 12.1-9.1 15.1-13.8 6.1-9.8 7-25.5 2.1-36.3-3.8-8.2-11.3-15.7-19.6-19.5-12.1-5.6-16.8-6.1-56.3-6.1H271zm71.3-57c4.3 1.2 10.1 5.9 12.3 10 1.9 3.8 1.8 14.2-.2 18.5-.9 1.9-3.2 4.8-5.1 6.3-5.8 4.8-12.7 6.1-32.1 6.1H300v-42h19.3c10.5 0 20.9.5 23 1.1m-2 65.9c17.1 2.5 26.3 13.2 24.3 28.2-.9 6.2-2.4 9.4-6.8 13.4-7.4 7-13.9 8.4-38.8 8.4h-19v-50l16.3-.3c8.9-.1 16.4-.3 16.7-.5.3-.1 3.6.3 7.3.8M616 450.9V535h29v-56h23.7l5.4 6.9c3 3.8 12.4 16.4 20.9 27.9l15.5 21.1 18.8.1c10.3 0 18.7-.2 18.7-.4 0-.3-2.8-4-6.2-8.3-17.3-21.7-39.8-51.6-39.3-52.3.3-.4 1.7-1.1 3.2-1.5 5-1.2 14-7.4 19.4-13.3 19-20.7 18.1-54.1-2-74.1-7.2-7.2-14.7-11.6-25.6-15.2-6.7-2.2-8.5-2.3-44.2-2.7l-37.3-.3zm74.2-55.5c6.6 2.5 13.1 8.5 15.8 14.8 2.7 6.1 3.2 16.5 1.2 23.5-1.7 5.7-9 13.5-15.4 16.4-4.9 2.2-6.7 2.4-26 2.7l-20.8.3v-29.4c0-16.1.3-29.7.8-30.1.4-.4 9.5-.6 20.2-.3 15.1.3 20.5.8 24.2 2.1M414.5 563.1c-18.6 2.8-32.9 11.8-43.1 27.1-5.4 8.1-8 15.4-9.4 25.9-3.7 29.6 13.8 57.2 42.3 66.5 7 2.4 9.8 2.8 19.7 2.7 9.6 0 12.8-.4 19.5-2.6 19.5-6.4 33-20.1 40.1-40.7 2.9-8.5 2.7-28.2-.4-37.1-7-20.3-23.8-35.9-43.4-40.3-8.9-2-18.3-2.6-25.3-1.5m16.9 22.4c8.3 1.8 13.8 4.9 19.5 11 14.2 15.4 14.1 39.9-.3 55.3-13.4 14.3-34.2 15.7-50.3 3.4-1.8-1.3-5-5-7.2-8.2-15.8-23.8-4-55.6 22.9-61.6 7.2-1.6 7.4-1.6 15.4.1M550 563c-24.2 3.8-41.9 18.9-50.6 43.5-2.1 6.1-2.5 25.6-.5 32.5.7 2.5 3.1 8.3 5.3 13 7 14.7 19.7 25.3 37.3 31.2 5.8 1.9 9 2.3 18.5 2.2 18-.1 30.2-5 43-17 19.7-18.7 24.6-47.8 12.3-72.7-5.4-10.7-16.2-21.2-27.3-26.5-12.4-5.8-25.9-8-38-6.2m20 23.1c6.1 1.4 11.8 4.9 16.7 10.2 21.2 23 9.5 61-20.6 66.7-6.8 1.3-16.6-.2-23.1-3.5-6.4-3.3-14.3-11.4-17.7-18.4-2.6-5.1-2.8-6.6-2.8-17.1 0-11 .1-11.8 3.3-18.2 8.2-16.8 24.6-24.1 44.2-19.7M273.3 564.7l-2.3.4V683h25v-47.8l2.3-.6c1.2-.3 12.4-.6 25-.6H346v-20h-50v-28h56.7l.7-10c.4-5.5.5-10.4.1-11-.6-1-75.1-1.3-80.2-.3M636.5 565.2c-.3.7-.4 27.5-.2 59.6l.2 58.3 25.9-.1c30.3-.1 37-1 49.4-7.1 15.2-7.4 24.2-18.2 29.2-34.7 1.9-6.4 2.2-8.9 1.7-19.5-.5-14.4-2.4-20.4-9.2-30.7-9.7-14.6-26.1-23.4-48-26-13.3-1.5-48.4-1.3-49 .2m49.8 22.2c9.8 1.9 15.9 4.9 21.7 10.7 10.3 10.2 12.8 29.3 5.9 43.5-4.8 10.1-16.5 17.5-30.2 19.4-8.8 1.1-16.1 1.3-19.4.4l-2.3-.6V586h8.4c4.6 0 11.8.6 15.9 1.4"/></svg>