<svg xmlns="http://www.w3.org/2000/svg" viewBox="0 0 969.00 955.00" data-guides="{&quot;vertical&quot;:[],&quot;horizontal&quot;:[]}"><defs/><path fill="rgb(0, 0, 0)" stroke="none" fill-opacity="1" stroke-width="1" stroke-opacity="1" id="tSvg12f9d29501b" title="Path 1" d="M364.2547 9.4435C363.3608 10.2437 362.6655 12.144 362.6655 13.4442C362.6655 19.5452 358.9905 32.8474 352.0378 51.8506C342.1054 79.0551 337.8345 91.7572 337.8345 94.4576C337.8345 95.7578 338.8277 98.4583 340.1189 100.5586C342.3041 104.2592 342.3041 104.9594 342.602 145.066C342.7014 158.6682 342.8007 172.2705 342.9 185.8727C332.3717 185.8727 321.8433 185.8727 311.3149 185.8727C217.8509 185.8727 152.3963 195.1743 49.4965 223.0789C37.081 226.3795 27.0492 229.3799 27.3472 229.58C28.0425 230.3801 58.8329 226.6795 109.8856 219.7784C138.2923 215.8777 169.5794 211.877 179.4125 210.7769C204.1442 208.0764 236.5239 207.3763 272.2805 208.7765C307.2426 210.0768 319.3602 210.9769 348.7601 214.3775C377.4648 217.678 414.3141 219.2783 444.608 218.5782C489.8004 217.478 500.1302 215.7777 544.2301 201.6754C550.5868 199.6084 556.9436 197.5413 563.3003 195.4743C563.3003 181.8721 563.3003 168.2698 563.3003 154.6676C563.3003 141.0653 563.3003 127.4631 563.3003 113.8608C576.5435 113.8608 589.7868 113.8608 603.03 113.8608C616.2732 113.8608 629.5164 113.8608 642.7596 113.8608C642.7596 124.1959 642.7596 134.5309 642.7596 144.866C642.7596 155.201 642.7596 165.536 642.7596 175.8711C645.4414 175.8711 648.1231 175.8711 650.8049 175.8711C653.4535 175.8711 656.1022 175.8711 658.7508 175.8711C658.6515 163.5357 658.5522 151.2003 658.4529 138.865C658.1549 104.9594 658.0556 101.7588 656.367 100.1586C654.7779 98.4583 650.9042 98.3583 601.0435 98.0582C583.1651 97.9249 565.2868 97.7915 547.4084 97.6581C547.4084 112.0272 547.4084 126.3962 547.4084 140.7653C547.4084 155.1343 547.4084 169.5034 547.4084 183.8724C545.422 183.8724 543.4355 183.8724 541.449 183.8724C539.4625 183.8724 537.476 183.8724 535.4896 183.8724C535.4896 178.4048 535.4896 172.9373 535.4896 167.4697C535.4896 162.0021 535.4896 156.5346 535.4896 151.067C531.1193 148.7333 526.749 146.3995 522.3788 144.0658C515.1281 140.2652 497.8457 131.3637 484.0396 124.3626C475.6633 120.0619 467.287 115.7611 458.9106 111.4604C448.1174 116.8613 437.3242 122.2622 426.531 127.6631C398.4222 141.6654 393.9526 143.6658 393.158 142.2655C392.6614 141.3654 392.3634 132.4639 392.6614 122.3622C393.0587 104.2592 393.0587 104.0592 395.8398 100.0585C399.1175 95.1577 399.2168 95.4578 389.8803 70.6537C377.8621 38.8484 371.6047 19.9453 371.6047 15.4445C371.6047 9.1435 367.6317 5.943 364.2547 9.4435ZM471.9221 178.9716C471.9221 184.0391 471.9221 189.1066 471.9221 194.1741C468.214 193.9407 464.5059 193.7074 460.7978 193.474C446.4951 192.5739 445.1046 191.7737 445.1046 184.4725C445.1046 181.572 445.4025 175.7711 445.7005 171.5704C445.9323 169.0033 446.164 166.4362 446.3958 163.8691C450.6336 163.8691 454.8714 163.8691 459.1093 163.8691C463.3802 163.8691 467.6512 163.8691 471.9221 163.8691C471.9221 168.9033 471.9221 173.9374 471.9221 178.9716Z" style=""/><path fill="rgb(0, 0, 0)" stroke="none" fill-opacity="1" stroke-width="1" stroke-opacity="1" id="tSvg65454291bd" title="Path 2" d="M219.5394 139.165C208.7131 141.8655 197.8868 144.5659 187.0604 147.2664C186.8287 150.7003 186.5969 154.1342 186.3652 157.5681C186.1334 161.002 185.9016 164.4359 185.6699 167.8698C182.4253 167.8698 179.1807 167.8698 175.9361 167.8698C165.0105 167.8698 157.6605 169.07 152.297 171.5704C146.3375 174.4709 132.9288 188.8732 134.6173 190.5735C135.0146 190.9736 138.6896 190.1735 142.9605 188.8732C156.3693 184.7726 162.1301 183.8724 179.5118 182.9723C188.8483 182.4722 197.3901 181.572 198.4827 180.9719C200.6678 179.8718 201.7604 175.471 201.7604 167.0696C201.7604 157.6681 201.7604 157.6681 229.7698 150.867C251.5218 145.6661 257.9779 145.5661 270.1947 150.2669C281.0211 154.4675 288.669 158.3682 291.1521 160.8686C292.642 162.3689 293.1386 164.2692 293.1386 168.1698C293.1386 171.0703 293.6352 173.9708 294.3305 174.6709C295.0258 175.371 298.3035 175.8711 302.2764 175.8711C304.5278 175.8711 306.7791 175.8711 309.0305 175.8711C309.0305 171.6037 309.0305 167.3363 309.0305 163.069C309.0305 158.8016 309.0305 154.5342 309.0305 150.2669C302.8393 147.6664 296.6481 145.066 290.4569 142.4656C266.5197 132.3639 262.0502 130.8636 256.488 130.9637C254.0049 131.0637 237.3184 134.7643 219.5394 139.165Z" style=""/><path fill="rgb(0, 0, 0)" stroke="none" fill-opacity="1" stroke-width="1" stroke-opacity="1" id="tSvg206ac86735" title="Path 3" d="M702.1555 139.5651C699.573 139.6984 696.9906 139.8318 694.4082 139.9651C694.4413 146.6996 694.4744 153.434 694.5075 160.1685C694.7062 186.2728 694.6068 185.9728 700.8643 188.0731C704.0426 189.1733 706.2278 189.3733 706.8237 188.7732C707.4197 188.1731 708.0156 181.272 708.3136 173.3707C709.0088 153.4674 708.0156 154.2675 729.9662 154.6676C739.0047 154.8676 746.6527 155.0676 746.752 155.2677C746.8513 155.3677 747.4473 166.4695 748.0432 179.8718C748.6392 193.374 749.3344 204.4758 749.4338 204.6759C750.0297 205.276 760.9554 207.2763 761.3527 206.7762C761.5513 206.5762 762.0479 191.1736 762.4452 172.5705C762.677 161.3354 762.9088 150.1002 763.1405 138.865C754.2675 138.9316 745.3946 138.9983 736.5216 139.065C721.8217 139.165 706.3271 139.4651 702.1555 139.5651Z" style=""/><path fill="rgb(0, 0, 0)" stroke="none" fill-opacity="1" stroke-width="1" stroke-opacity="1" id="tSvg1bcd00da83" title="Path 4" d="M634.3171 190.5735C618.4252 191.7737 607.6982 194.6742 569.2598 208.0764C514.0355 227.3796 499.4349 230.0801 444.608 231.4803C413.9168 232.2804 407.4607 231.6803 350.7466 222.8789C295.6217 214.3775 262.3481 210.8769 254.4022 212.6772C251.2238 213.3773 251.6211 213.5773 259.3684 214.7775C275.1609 217.1779 293.5359 220.9786 339.523 231.4803C409.7452 247.4829 434.9735 251.1836 472.4187 251.1836C509.8639 251.1836 542.1443 246.0827 587.4361 232.9805C630.1455 220.5785 643.3556 218.8782 666.3988 222.3788C676.2319 223.879 681.0988 224.9792 717.7494 233.7807C747.05 240.7818 754.4 241.982 771.9804 242.5821C790.7526 243.2822 798.6986 242.082 829.0917 234.3808C858.1937 226.8795 866.0403 226.2794 909.8423 227.7797C928.7139 228.4798 945.599 229.1799 947.1882 229.3799C954.7368 230.5801 941.0301 226.5795 914.7092 219.9784C882.8261 211.9771 870.2119 209.8767 854.6181 209.8767C842.1032 209.8767 837.8323 210.5768 816.0803 215.8777C790.3553 222.1788 772.5763 223.1789 753.0094 219.2783C748.9372 218.3781 731.4561 212.9772 714.273 207.2763C679.8075 195.6744 667.7893 192.3738 653.6853 190.8736C644.4481 189.9734 642.263 189.8734 634.3171 190.5735Z" style=""/><path fill="rgb(0, 0, 0)" stroke="none" fill-opacity="1" stroke-width="1" stroke-opacity="1" id="tSvg10079c1d2c2" title="Path 5" d="M456.0302 307.993C411.1357 313.7939 368.7243 334.6974 340.2183 365.2024C307.7393 399.8082 291.9467 435.4141 288.0731 482.7219C285.292 515.6273 292.7413 554.5338 307.1433 582.9385C330.3852 628.646 368.8236 661.5515 418.2871 678.0542C459.6059 691.7565 506.0896 690.7563 547.1105 675.3538C599.355 655.6505 638.0914 617.5442 658.6515 565.4356C662.4258 555.834 667.1934 537.731 668.5839 527.4293C671.7623 504.6255 670.6697 470.8199 666.2001 452.4169C656.963 414.4106 633.1252 376.4043 602.0367 350.5C568.8625 322.6954 523.074 306.6927 478.1795 306.9928C469.5383 307.0928 459.6059 307.4929 456.0302 307.993ZM494.866 359.5015C529.7287 364.3023 553.3679 376.1042 576.9077 400.1082C604.9171 428.6129 616.4387 457.3177 616.3394 498.4245C616.2401 529.2296 609.784 550.6331 593.2962 575.5372C586.1449 586.239 576.9077 596.5407 567.5713 604.142C559.3273 610.9431 554.5598 613.5435 553.0699 612.0433C551.6794 610.6431 550.9841 571.8366 552.176 560.1347C552.5071 557.0008 552.8382 553.867 553.1692 550.7331C556.6125 547.3659 560.0557 543.9987 563.499 540.6315C572.6368 531.63 574.4246 529.3296 578.7949 520.5281C580.4172 517.2609 582.0395 513.9937 583.6618 510.7265C583.6287 502.8252 583.5955 494.9239 583.5624 487.0226C583.4631 459.418 582.2712 451.7167 576.3118 439.3147C571.1469 428.913 562.2077 419.0113 554.5598 415.2107C549.6929 412.8103 547.7064 412.4102 540.4558 412.4102C533.2051 412.4102 531.2186 412.8103 526.3517 415.2107C523.074 416.811 518.9024 420.1115 516.4193 422.812C509.8639 430.2132 502.7126 443.1153 499.9315 452.2168C497.647 459.8181 497.4484 462.1185 497.3491 482.9219C497.1504 516.3274 498.9383 521.3283 516.4193 538.7312C520.1936 542.5318 523.9679 546.3324 527.7423 550.133C527.5105 563.2685 527.2788 576.4041 527.047 589.5396C526.8152 602.6417 526.5835 615.7439 526.3517 628.8461C524.4977 629.3795 522.6436 629.9129 520.7896 630.4463C507.9768 634.247 498.541 635.3471 477.8815 635.3471C460.4998 635.2471 456.1296 634.9471 448.0843 633.1468C422.856 627.2458 401.5013 615.1438 382.5304 595.9406C370.2142 583.4386 362.4669 572.8368 355.1169 558.3344C344.9858 538.1311 341.8075 523.3286 341.8075 495.524C341.8075 488.3228 342.3041 478.6212 342.8007 474.1205C344.7872 458.3178 353.627 436.3142 364.8507 419.4114C371.6047 409.1097 388.1918 391.9068 398.2236 384.6056C426.8289 363.9022 461.6917 354.8007 494.866 359.5015Z" style=""/><path fill="#c15639" stroke="none" fill-opacity="1" stroke-width="1" stroke-opacity="1" id="tSvg18544e3d063" title="Path 6" d="M392.7607 415.1107C391.5689 415.7108 390.2776 416.911 389.9797 417.8111C388.2912 422.1118 387.2979 447.5161 387.1986 488.4228C386.9999 524.3288 387.2979 534.2304 388.3905 537.3309C390.1783 542.5318 395.1445 547.8327 402.7925 552.8335C404.9114 554.2337 407.0303 555.6339 409.1492 557.0342C409.3479 560.8348 409.5465 564.6354 409.7452 568.4361C410.0431 574.7371 410.6391 585.1388 410.9371 591.4399C411.1357 595.2738 411.3344 599.1078 411.533 602.9418C414.2479 604.5754 416.9627 606.209 419.6776 607.8426C430.0073 614.0436 434.2782 616.244 434.8742 615.5439C435.1722 615.2438 435.7681 602.8418 436.2647 587.9393C436.8607 566.5358 437.3573 560.3347 438.5492 558.5344C439.3438 557.2342 443.5154 553.6336 447.7863 550.4331C452.0573 547.2326 456.6262 543.2319 458.0167 541.5316C458.8444 540.5315 459.6721 539.5313 460.4998 538.5311C460.5991 527.1626 460.6985 515.794 460.7978 504.4255C461.0958 470.9199 459.7052 425.2124 458.2154 419.4114C457.1228 415.3107 453.1498 413.1104 449.6735 414.7106C448.1836 415.3107 446.5944 417.111 445.8992 418.6113C445.3032 420.4116 444.608 434.7139 444.2107 456.4175C443.6147 483.9221 443.2174 492.0234 442.0255 494.4238C440.4363 497.8244 438.3505 498.5245 435.7681 496.6242C433.6823 495.1239 433.3843 491.2233 431.2985 441.415C430.7026 428.7129 430.0073 417.5111 429.61 416.6109C428.0208 412.3102 418.9823 413.9105 417.8898 418.7113C417.5918 420.2115 416.8965 434.7139 416.3006 450.9166C415.1087 487.4227 414.6121 493.7237 412.7249 496.6242C410.7384 499.8247 407.56 499.6247 406.2688 496.1241C405.6729 494.6239 404.779 482.1218 404.2823 468.4195C402.8918 425.8125 402.0972 417.6111 398.8195 415.2107C396.7337 413.7105 395.7405 413.7105 392.7607 415.1107Z" style=""/><path fill="rgb(0, 0, 0)" stroke="none" fill-opacity="1" stroke-width="1" stroke-opacity="1" id="tSvg9e80b262de" title="Path 7" d="M19.004 488.0228C19.004 544.0987 19.004 600.1747 19.004 656.2506C46.2519 656.0172 73.4998 655.7839 100.7477 655.5505C192.9206 654.7504 183.6834 655.5505 206.0313 646.1489C246.059 629.4462 267.4137 596.6407 265.0299 555.5339C263.4407 528.3294 253.111 508.1261 233.1468 493.2236C225.4989 487.5227 212.3881 480.4215 206.7266 478.9213C199.0786 476.8209 199.4759 477.0209 200.6678 475.5207C201.2638 474.8206 204.8394 472.4202 208.4151 470.3198C212.0901 468.1195 219.4401 462.2185 224.7043 457.1176C238.709 443.7154 243.9732 432.6136 246.4563 412.1102C249.5353 387.006 240.9934 363.7022 222.4198 346.3993C211.1962 335.8976 197.4895 328.6964 180.4057 324.3957C166.3017 320.7951 146.4368 319.8949 79.393 319.8949C59.2633 319.8949 39.1337 319.8949 19.004 319.8949C19.004 375.9375 19.004 431.9801 19.004 488.0228ZM148.8206 372.8037C162.2294 373.8039 167.9902 376.2042 176.9294 384.5056C185.6699 392.707 187.3584 396.9077 187.3584 410.91C187.3584 425.1123 185.5706 431.5134 179.8098 438.2145C167.4936 452.6169 153.8862 455.8174 104.7207 455.9174C95.3511 455.9174 85.9815 455.9174 76.612 455.9174C76.612 441.9151 76.612 427.9128 76.612 413.9105C76.612 399.9082 76.612 385.9059 76.612 371.9035C86.8092 371.9369 97.0065 371.9702 107.2038 372.0036C123.9896 372.0036 142.6625 372.4036 148.8206 372.8037ZM159.5476 506.6258C191.828 512.8269 208.4151 533.1302 204.7401 562.035C203.3496 573.837 199.9726 580.5381 191.3314 588.8394C175.9361 603.5419 164.2159 605.9423 108.793 605.9423C98.066 605.9423 87.339 605.9423 76.612 605.9423C76.612 589.2729 76.612 572.6034 76.612 555.934C76.612 539.2646 76.612 522.5951 76.612 505.9257C82.5052 505.8924 88.3984 505.859 94.2917 505.8257C103.9261 505.7257 118.8247 505.3256 127.2673 504.9256C144.351 504.2254 148.026 504.3255 159.5476 506.6258Z" style=""/><path fill="rgb(0, 0, 0)" stroke="none" fill-opacity="1" stroke-width="1" stroke-opacity="1" id="tSvg138ed69944a" title="Path 8" d="M704.3406 487.7227C704.3406 543.7987 704.3406 599.8746 704.3406 655.9506C713.9419 655.9506 723.5433 655.9506 733.1446 655.9506C742.7459 655.9506 752.3473 655.9506 761.9486 655.9506C761.9486 637.2808 761.9486 618.611 761.9486 599.9413C761.9486 581.2715 761.9486 562.6018 761.9486 543.932C769.8283 543.932 777.708 543.932 785.5878 543.932C793.4344 543.932 801.281 543.932 809.1276 543.932C809.9884 545.0322 810.8492 546.1324 811.71 547.2326C817.5701 554.6338 855.3133 605.2422 873.0923 629.6462C879.4822 638.4143 885.8721 647.1824 892.2619 655.9506C904.4457 655.9506 916.6294 655.9506 928.8132 655.9506C948.976 655.9506 965.6625 655.5505 965.9604 655.1504C966.457 654.3503 962.9807 649.7495 940.2355 620.8447C924.2443 600.5414 887.097 550.8332 880.8396 541.5316C875.6748 533.7303 875.7741 532.9302 882.3295 530.9299C897.7247 526.3291 918.4835 509.7264 929.6078 493.2236C941.924 474.9206 947.6848 455.5174 947.6848 432.4136C947.6848 413.9105 944.3078 399.008 936.4612 383.4054C919.9733 350.3 883.4221 325.3958 846.2748 321.9953C840.0174 321.3952 805.5519 320.595 769.6959 320.295C747.9108 320.0616 726.1257 319.8283 704.3406 319.5949C704.3406 375.6375 704.3406 431.6801 704.3406 487.7227ZM840.7127 374.504C848.3606 375.6042 852.0356 376.7043 857.5978 379.6048C866.4376 384.3056 877.5619 395.2074 881.3362 402.9087C889.2822 419.1114 890.0768 444.2155 883.1241 458.4179C877.8599 469.3197 865.5437 481.1216 853.9228 486.5225C846.2748 490.0231 838.5275 490.7232 798.4999 491.5233C786.3161 491.7567 774.1324 491.9901 761.9486 492.2235C761.9817 474.9206 762.0148 457.6177 762.0479 440.3149C762.1473 411.8101 762.4452 385.0057 762.8425 380.905C763.0412 378.4046 763.2398 375.9042 763.4385 373.4038C764.9283 373.2038 766.4182 373.0037 767.9081 372.8037C775.4567 371.7035 830.1843 372.9037 840.7127 374.504Z" style=""/><path fill="#c15639" stroke="none" fill-opacity="1" stroke-width="1" stroke-opacity="1" id="tSvg14fc6f3e721" title="Path 9" d="M304.0643 712.0598C291.5494 714.5603 277.8427 718.6609 269.9961 722.0615C238.6097 735.6637 211.4942 767.569 203.2503 800.3745C195.205 832.1797 198.4827 863.0848 212.8847 890.9895C227.4854 919.4942 252.6144 940.6977 284.4974 951.3995C288.0731 952.5997 291.6488 953.7999 295.2244 955.0001C304.4285 955.0001 313.6325 955.0001 322.8365 955.0001C332.0737 955.0001 341.3108 955.0001 350.548 955.0001C353.6601 953.9999 356.7723 952.9997 359.8845 951.9996C370.7108 948.399 384.3182 941.8979 393.456 935.8969C402.1965 930.0959 417.6911 914.2933 424.2465 904.5917C431.1992 894.09 439.6417 876.287 442.2242 866.4854C445.2039 854.9835 445.9985 826.8788 443.714 811.0762C440.337 788.0724 428.8154 766.2688 409.9438 747.3657C389.1851 726.5622 368.9229 716.5606 338.8277 712.4599C327.3061 710.8596 310.9176 710.6596 304.0643 712.0598ZM341.2115 757.8674C357.4013 762.1681 371.6047 771.9698 381.6364 785.672C405.5736 818.1774 401.4019 865.0852 372.3993 892.6897C354.3223 909.7926 329.6899 916.5937 306.4481 910.9928C277.5447 904.0916 258.1765 884.0883 249.6346 852.4831C247.3502 843.9817 247.4495 821.778 249.8333 812.9765C254.0049 797.2739 265.1292 780.0711 276.6508 771.2696C284.4974 765.2686 298.7008 758.5675 307.5406 756.5672C316.5791 754.5669 330.8818 755.067 341.2115 757.8674Z" style=""/><path fill="#c15639" stroke="none" fill-opacity="1" stroke-width="1" stroke-opacity="1" id="tSvg147e1cfe07e" title="Path 10" d="M570.1537 712.5599C524.9612 720.7613 488.8072 752.4665 473.5113 797.1739C469.8363 807.9757 468.1478 830.7795 469.6376 848.6825C470.9289 863.0848 472.816 869.3859 481.3579 887.5889C488.2113 902.1913 493.2768 909.5925 504.1031 920.5944C517.2139 933.8966 532.7085 943.4982 553.5665 951.3995C556.778 952.5997 559.9895 953.7999 563.201 955.0001C572.2726 955.0001 581.3442 955.0001 590.4158 955.0001C615.9421 955.0001 618.2266 954.8 627.0664 952.5997C644.9448 947.9989 661.2339 938.5973 676.7285 924.0949C695.8981 905.9919 707.1217 886.5887 713.2798 860.9845C716.3588 848.3824 716.6568 822.9782 713.9751 810.1761C708.2143 783.7717 697.5866 764.1685 679.3109 746.4655C661.3333 728.8626 641.1704 718.761 613.0617 712.96C601.4408 710.5596 581.8739 710.3596 570.1537 712.5599ZM613.459 758.3675C623.2921 761.068 632.7279 766.3688 640.5745 773.57C652.7914 784.7719 660.4393 797.1739 664.8096 812.6765C667.7893 822.9782 667.8886 842.9815 665.2069 853.4833C658.1549 880.5877 639.2833 901.1911 613.9556 909.5925C606.5063 912.093 604.1225 912.393 593.0976 912.393C582.4699 912.293 579.3908 911.8929 571.7429 909.5925C566.876 908.0923 560.4199 905.5919 557.3409 903.8916C545.3226 897.3905 530.8213 881.3879 523.372 866.2854C521.9484 863.4182 520.5247 860.5511 519.1011 857.6839C519.1011 849.7826 519.1011 841.8813 519.1011 833.98C519.1011 826.0787 519.1011 818.1774 519.1011 810.2761C520.9882 806.4755 522.8754 802.6748 524.7625 798.8742C536.4828 775.0703 553.9638 761.168 577.007 756.9673C584.1584 755.6671 606.6056 756.5672 613.459 758.3675Z" style=""/><path fill="#c15639" stroke="none" fill-opacity="1" stroke-width="1" stroke-opacity="1" id="tSvg18ee3661c1d" title="Path 11" d="M33.406 714.9603C26.2546 715.3604 20.1959 715.7605 19.7986 715.8605C19.3019 715.8605 19.004 769.0693 19.004 833.98C19.004 873.3199 19.004 912.6597 19.004 951.9996C27.281 951.9996 35.558 951.9996 43.835 951.9996C52.112 951.9996 60.389 951.9996 68.666 951.9996C68.666 936.0302 68.666 920.0609 68.666 904.0916C68.666 888.1223 68.666 872.153 68.666 856.1837C69.5931 855.9503 70.5201 855.717 71.4471 855.4836C72.937 855.0835 95.2849 854.5834 121.1092 854.2834C136.7362 854.1167 152.3632 853.95 167.9902 853.7833C167.9902 847.1489 167.9902 840.5144 167.9902 833.88C167.9902 827.2456 167.9902 820.6111 167.9902 813.9767C151.4362 813.9767 134.8821 813.9767 118.3281 813.9767C101.7741 813.9767 85.2201 813.9767 68.666 813.9767C68.666 804.6418 68.666 795.307 68.666 785.9721C68.666 776.6372 68.666 767.3023 68.666 757.9674C87.339 757.9674 106.0119 757.9674 124.6849 757.9674C175.1415 757.9674 180.7037 757.7674 181.2996 756.3672C181.5976 755.467 182.1935 746.0655 182.5908 735.5637C182.7895 729.1293 182.9881 722.6949 183.1868 716.2605C181.8956 716.0272 180.6044 715.7938 179.3131 715.5604C173.453 714.5603 48.2053 714.0602 33.406 714.9603Z" style=""/><path fill="#c15639" stroke="none" fill-opacity="1" stroke-width="1" stroke-opacity="1" id="tSvg11809657a94" title="Path 12" d="M754.2013 714.8603C749.7317 715.3604 745.8581 715.8605 745.6595 716.0605C744.3682 717.3607 744.1696 757.6674 744.7655 848.8825C744.9642 883.3549 745.1628 917.8272 745.3615 952.2996C761.9486 952.0996 778.5358 951.8995 795.1229 951.6995C855.214 950.9994 865.2457 949.9992 882.6275 942.9981C901.0024 935.5968 915.0071 926.6954 925.9328 915.2935C938.249 902.4914 945.1024 890.7894 951.1611 872.6864C955.9287 858.184 957.0213 850.1827 956.2267 832.9799C954.9354 805.8754 951.5584 791.1729 943.2152 776.7706C923.251 742.3649 891.666 722.8616 845.3809 716.3606C833.3627 714.6603 767.5108 713.6601 754.2013 714.8603ZM833.462 759.4677C840.3154 760.2678 848.46 761.568 851.7377 762.4682C886.6998 771.6697 906.2666 797.774 906.1673 834.8802C906.068 865.0852 893.0565 886.3887 866.5369 899.8909C851.9363 907.2922 819.06 911.8929 801.9763 908.8924C799.8904 908.5257 797.8046 908.159 795.7188 907.7922C795.7188 882.8214 795.7188 857.8506 795.7188 832.8798C795.7188 807.909 795.7188 782.9382 795.7188 757.9674C799.9567 757.9674 804.1945 757.9674 808.4323 757.9674C815.385 757.9674 826.6086 758.6676 833.462 759.4677Z" style=""/></svg>