<?xml version="1.0" standalone="no"?>
<!DOCTYPE svg PUBLIC "-//W3C//DTD SVG 20010904//EN"
 "http://www.w3.org/TR/2001/REC-SVG-20010904/DTD/svg10.dtd">
<svg version="1.0" xmlns="http://www.w3.org/2000/svg"
 width="518.000000pt" height="436.000000pt" viewBox="0 0 518.000000 436.000000"
 preserveAspectRatio="xMidYMid meet">

<g transform="translate(0.000000,436.000000) scale(0.100000,-0.100000)"
fill="#000000" stroke="none">
<path d="M2183 4301 c-59 -27 -99 -59 -126 -100 -13 -20 -59 -128 -101 -241
-179 -471 -378 -985 -384 -991 -7 -6 -197 -20 -902 -69 -394 -27 -397 -27
-455 -54 -131 -60 -197 -199 -162 -341 28 -115 -8 -81 747 -694 151 -123 281
-229 289 -236 17 -17 2 -85 -204 -922 -41 -166 -75 -321 -75 -345 0 -84 27
-146 88 -208 68 -67 124 -90 223 -90 57 0 77 5 131 33 60 32 558 342 888 554
l156 99 79 -52 c103 -67 579 -369 802 -508 95 -59 187 -111 205 -117 142 -40
299 33 362 170 36 81 29 132 -94 656 -62 264 -125 532 -140 596 l-27 117 196
163 c391 326 766 644 784 664 10 11 30 44 44 74 68 142 3 326 -142 396 -50 25
-72 28 -322 45 -263 18 -671 44 -906 58 l-118 7 -140 365 c-76 201 -181 475
-231 610 -88 234 -95 247 -143 295 -32 32 -68 56 -100 68 -67 23 -168 22 -222
-2z m187 -163 c18 -13 37 -30 42 -38 4 -8 93 -240 197 -515 258 -681 280 -737
301 -759 22 -22 -32 -17 720 -62 677 -40 680 -41 720 -106 24 -40 26 -110 4
-146 -9 -15 -111 -106 -226 -202 -116 -96 -341 -284 -502 -418 -190 -159 -295
-253 -304 -273 -14 -33 -10 -51 187 -887 102 -433 103 -442 71 -501 -28 -54
-112 -76 -170 -46 -30 16 -287 177 -803 504 -255 162 -293 183 -321 178 -18
-3 -203 -113 -432 -258 -682 -431 -683 -432 -736 -437 -36 -3 -55 1 -81 17
-36 22 -67 73 -67 109 0 11 25 118 55 238 145 585 245 1014 245 1056 0 14 -3
33 -6 42 -3 9 -108 98 -232 198 -124 101 -255 208 -292 238 -37 30 -160 131
-274 224 -114 93 -216 178 -227 189 -51 55 -44 143 16 196 37 32 23 30 315 50
74 6 344 24 600 42 262 18 478 37 495 44 26 10 36 26 64 96 47 119 214 554
342 894 93 246 115 295 144 323 44 40 104 44 155 10z"/>
<path d="M3974 4203 c-32 -6 -54 -35 -68 -89 -8 -27 -34 -124 -60 -216 -25
-91 -46 -177 -46 -190 0 -61 95 -91 138 -45 12 13 22 28 22 33 0 5 27 104 60
219 52 182 58 214 49 238 -10 23 -59 61 -71 56 -2 -1 -13 -4 -24 -6z"/>
<path d="M4675 3741 c-16 -11 -99 -86 -183 -168 -136 -132 -152 -151 -152
-181 0 -43 38 -82 79 -82 34 0 63 24 266 218 113 109 120 118 120 155 0 69
-66 99 -130 58z"/>
<path d="M4860 2958 c-102 -11 -199 -25 -216 -33 -42 -18 -61 -63 -42 -102 25
-53 42 -55 282 -28 119 14 226 30 236 35 46 25 50 105 7 135 -26 18 -32 18
-267 -7z"/>
</g>
</svg>
